<svg id="Layer_1" data-name="Layer 1" xmlns="http://www.w3.org/2000/svg" viewBox="0 0 899.91 352.27"><title>m37 logo</title><path d="M1194.71,354.18c18.25,16.69,27.58,38.93,27.58,60.81,0,22.24-9.33,44.49-27.58,61.54a100.79,100.79,0,0,1-66.91,25.22h-.41c-23.92,0-48.25-8.16-66.5-25.22a4.41,4.41,0,0,1,0-6.67,5.49,5.49,0,0,1,7.3,0,88.41,88.41,0,0,0,59.2,22.25c21.9,0,43.39-7.42,59.61-22.62a72.27,72.27,0,0,0,24.74-54.5c0-19.28-8.11-38.93-24.33-54.13a88.43,88.43,0,0,0-59.2-22.25,6,6,0,0,1-4.87-2.22c0-.37-.41-.37-.41-.37a4.86,4.86,0,0,1,0-7l81.92-77.11H1079.54a4.84,4.84,0,1,1,0-9.64H1217a5.16,5.16,0,0,1,5.28,4.82,4.29,4.29,0,0,1-.41,2.22,8,8,0,0,1-1.22,1.85l-83.53,78.23C1158.21,331.2,1178.89,339.35,1194.71,354.18Z" transform="translate(-646.14 -201.34)"/><path d="M1316.36,495.44,1427.88,252.6H1278.24a5.15,5.15,0,0,1-5.27-4.82c0-2.23,2.43-4.82,5.27-4.82H1436.4c2.43,0,5.27,2.59,5.27,4.82,0,1.11-.81,2.22-1.63,3.33l-114.35,248a4.87,4.87,0,0,1-4.46,3,19.4,19.4,0,0,0-2-.37C1316.36,500.63,1315.55,498,1316.36,495.44Z" transform="translate(-646.14 -201.34)"/><path d="M1546.05,553.62H646.14V201.34h899.91Zm-889.91-10h879.91V211.34H656.14Z" transform="translate(-646.14 -201.34)"/><path d="M970.29,258.42l-95.76,133.3a6,6,0,0,1-4.13,1.88h-.75a4.83,4.83,0,0,1-4.13-1.88L769.39,258v239.2a4.66,4.66,0,0,1-4.5,4.88,5,5,0,0,1-4.89-4.88V244.52a5.25,5.25,0,0,1,4.89-4.88A1.36,1.36,0,0,1,766,240a6.72,6.72,0,0,1,3.38,1.5L870,381.21,970.66,241.52a4.64,4.64,0,0,1,3-1.5,1.36,1.36,0,0,1,1.12-.38,5,5,0,0,1,4.88,4.88V497.24a4.73,4.73,0,0,1-4.88,4.88,4.92,4.92,0,0,1-4.5-4.88Z" transform="translate(-646.14 -201.34)"/></svg>
